# xmcd
#
# Track frame offsets: 
#        150
#        8627
#        41562
#        63007
#        79440
#        105125
#        121272
#        133507
#        152775
#        166235
#        194795
#        216422
#
# Disc length: 2931 seconds
#
# Revision: 0
# Processed by: cddbd v1.5.2PL0 Copyright (c) Steve Scherf et al.
# Submitted via: ExactAudioCopy v0.95b4
#
DISCID=9b0b710c
DTITLE=Rhonda Richmond - Oshogbo Town
DYEAR=2003
DGENRE=R&B
TTITLE0=Chant
TTITLE1=Float That Boat
TTITLE2=Oshogbo Town
TTITLE3=Who's That There
TTITLE4=Mood Indigo
TTITLE5=Such A Stay
TTITLE6=I Want A Little Sugar In My Bowl
TTITLE7=Wandering Round My Heart
TTITLE8=Iyami
TTITLE9=Just Nineteen
TTITLE10=Mr. Magic
TTITLE11=Chant
EXTD=
EXTT0=
EXTT1=
EXTT2=
EXTT3=
EXTT4=
EXTT5=
EXTT6=
EXTT7=
EXTT8=
EXTT9=
EXTT10=
EXTT11=
PLAYORDER=
